# xmcd
#
# Track frame offsets: 
#        150
#        13695
#        27592
#        45085
#        58852
#        71362
#        87025
#        102957
#        114217
#        129067
#
# Disc length: 1884 seconds
#
# Revision: 1
# Processed by: cddbd v1.5.2PL0 Copyright (c) Steve Scherf et al.
# Submitted via: ExactAudioCopy v0.95b2
#
DISCID=6f075a0a
DTITLE=Millie Jackson - I Got To Try It One Time
DYEAR=1974
DGENRE=R&B
TTITLE0=How Do You Feel The Morning After
TTITLE1=I Got To Try It One Time
TTITLE2=Get Your Love Right
TTITLE3=Gospel Truth
TTITLE4=My Love Is So Fly
TTITLE5=One Night Stand
TTITLE6=A Letter Full Of Tears
TTITLE7=I Gotta Do Something About Myself
TTITLE8=Watch The One Who Brings You The News
TTITLE9=In The Wash
EXTD=
EXTT0=
EXTT1=
EXTT2=
EXTT3=
EXTT4=
EXTT5=
EXTT6=
EXTT7=
EXTT8=
EXTT9=
PLAYORDER=
